<svg xmlns="http://www.w3.org/2000/svg" xml:space="preserve" style="fill-rule:evenodd;clip-rule:evenodd;stroke-linejoin:round;stroke-miterlimit:2" viewBox="0 0 261 261"><path d="m234.293 261-55.527-55.513c-14.222-14.218-22.751-36.903-10.152-57.332 6.772-10.981 10.444-24.347 10.444-39.026 0-39.711-27.01-69.721-68.285-69.721-41.274 0-68.285 30.01-68.285 69.721 0 34.222 20.06 61.24 52.021 68.055 15.099 3.219 26.334 3.987 34.764 9.168 13.703 8.423 26.485 22.75 26.485 22.75s-3.084 1.581-4.727 2.262c-12.18 5.058-25.979 6.894-40.258 6.894C48.558 218.258 0 172.484 0 109.129 0 45.774 48.558 0 110.773 0c62.215 0 110.774 45.774 110.774 109.129 0 20.453-5.061 39.073-14.007 54.911a16.15 16.15 0 0 0 2.678 19.379C227.028 200.206 261 234.021 261 234.021z" style="fill:#0ea5e9;fill-rule:nonzero"/></svg>