<svg xml:space="preserve" viewBox="0 0 177 177" fill-rule="evenodd" clip-rule="evenodd" stroke-linejoin="round" stroke-miterlimit="2"><path d="M147.75 128.25v25.5c0 4.139-3.361 7.5-7.5 7.5h-25.5l-15 15h40.5c12.418 0 22.5-10.082 22.5-22.5v-40.5l-15 15ZM162.75 92.352V52.5c0-28.976-23.524-52.5-52.5-52.5H36C23.582 0 13.5 10.082 13.5 22.5v131.25c0 12.418 10.082 22.5 22.5 22.5h42.852l83.898-83.898ZM98.25 15v27c0 12.418 10.082 22.5 22.5 22.5h27v21.639L72.639 161.25H36a7.504 7.504 0 0 1-7.5-7.5V22.5c0-4.139 3.361-7.5 7.5-7.5h62.25Zm15 .119c18.307 1.452 32.929 16.074 34.381 34.381H120.75a7.504 7.504 0 0 1-7.5-7.5V15.119Z" fill="#ef4444"/><circle cx="64.875" cy="68.25" r="19.125" fill="#ef4444"/><path d="m48.75 108 33 33h-33v-33ZM98.25 88.5h32.25v32.25H98.25z" fill="#ef4444"/></svg>