<?xml version="1.0" encoding="UTF-8" standalone="no"?><!DOCTYPE svg PUBLIC "-//W3C//DTD SVG 1.1//EN" "http://www.w3.org/Graphics/SVG/1.1/DTD/svg11.dtd"><svg width="100%" height="100%" viewBox="0 0 700 700" version="1.1" xmlns="http://www.w3.org/2000/svg" xmlns:xlink="http://www.w3.org/1999/xlink" xml:space="preserve" xmlns:serif="http://www.serif.com/" style="fill-rule:evenodd;clip-rule:evenodd;stroke-linejoin:round;stroke-miterlimit:2;"><path d="M628.372,700l-148.922,-148.885c-38.144,-38.133 -61.019,-98.974 -27.228,-153.764c18.162,-29.451 28.011,-65.298 28.011,-104.668c-0,-106.504 -72.442,-186.992 -183.14,-186.992c-110.698,0 -183.14,80.488 -183.14,186.992c0,91.783 53.8,164.244 139.52,182.522c40.495,8.635 70.627,10.694 93.235,24.591c36.752,22.59 71.033,61.015 71.033,61.015c0,-0 -8.271,4.238 -12.676,6.067c-32.667,13.563 -69.677,18.488 -107.972,18.488c-166.86,-0 -297.093,-122.764 -297.093,-292.683c0,-169.919 130.233,-292.683 297.093,-292.683c166.86,0 297.093,122.764 297.093,292.683c0,54.855 -13.573,104.795 -37.565,147.27c-9.565,16.97 -6.627,38.228 7.183,51.975c45.084,45.024 136.196,135.714 136.196,135.714l-71.628,72.358Z" style="fill-rule:nonzero;"/></svg>