<svg xml:space="preserve" viewBox="0 0 583 110" fill-rule="evenodd" clip-rule="evenodd" stroke-linejoin="round" stroke-miterlimit="2"><path d="M220.589 285.096h23.781V404h-23.781zM354.781 285.096v82.893l-56.055-82.893h-27.178V404h23.781v-82.893L351.384 404h27.178V285.096h-23.781Z" transform="matrix(.75027 0 0 .75027 -165.501 -212.623)" fill="#0ea5e9" fill-rule="nonzero"/><path d="m861.748 635.479-40.578-40.615c-10.394-10.403-16.627-27-7.42-41.947 4.949-8.034 7.633-17.813 7.633-28.553 0-29.054-19.739-51.011-49.902-51.011s-49.902 21.957-49.902 51.011c0 25.038 14.659 44.806 38.016 49.792 11.034 2.355 19.245 2.917 25.405 6.708 10.014 6.163 19.355 16.645 19.355 16.645s-2.254 1.156-3.454 1.655c-8.901 3.7-18.986 5.043-29.42 5.043-45.467 0-80.953-33.489-80.953-79.843 0-46.354 35.486-79.843 80.953-79.843 45.466 0 80.952 33.489 80.952 79.843 0 14.964-3.698 28.588-10.236 40.175a11.827 11.827 0 0 0 1.958 14.179 44743.501 44743.501 0 0 0 37.11 37.022l-19.517 19.739Z" transform="matrix(.57462 0 0 .57462 -260.425 -255.429)" fill="#0ea5e9" fill-rule="nonzero"/><path d="M571.356 353.041v-67.945h-22.931v71.342c0 31.765 22.252 49.261 52.657 49.261 30.406 0 52.658-17.496 52.658-49.261v-71.342h-22.932v67.945c0 18.515-11.55 29.726-29.726 29.726-18.175 0-29.726-11.211-29.726-29.726ZM769.247 404v-22.082H703V354.23h57.753v-22.082H703v-24.97h66.247v-22.082h-90.028V404h90.028ZM791.329 319.238c0 21.233 19.024 28.028 39.408 33.803 19.195 5.436 24.121 7.644 24.121 16.307 0 8.493-5.776 13.759-21.573 13.759-14.099 0-27.178-7.984-33.633-15.458l-15.118 17.156c7.134 9.683 28.707 20.894 50.619 20.894 25.31 0 43.655-13.589 43.655-37.2 0-22.422-14.778-29.896-37.37-35.841-19.534-5.096-25.479-6.965-25.479-14.439 0-7.814 7.134-12.23 18.685-12.23 13.249 0 21.233 4.416 26.668 10.022l14.609-17.666c-8.833-8.833-21.063-14.948-41.277-14.948-20.214 0-43.315 12.74-43.315 35.841ZM956.096 307.178h40.767v-22.082H891.548v22.082h40.767V404h23.781v-96.822Z" transform="matrix(.75027 0 0 .75027 -165.501 -212.623)" fill="#0ea5e9" fill-rule="nonzero"/></svg>