<?xml version="1.0" encoding="UTF-8" standalone="no"?><!DOCTYPE svg PUBLIC "-//W3C//DTD SVG 1.1//EN" "http://www.w3.org/Graphics/SVG/1.1/DTD/svg11.dtd"><svg width="100%" height="100%" viewBox="0 0 177 177" version="1.1" xmlns="http://www.w3.org/2000/svg" xmlns:xlink="http://www.w3.org/1999/xlink" xml:space="preserve" xmlns:serif="http://www.serif.com/" style="fill-rule:evenodd;clip-rule:evenodd;stroke-linejoin:round;stroke-miterlimit:2;"><path d="M147.75,128.25l0,25.5c0,4.139 -3.361,7.5 -7.5,7.5l-25.5,0l-15,15l40.5,0c12.418,0 22.5,-10.082 22.5,-22.5l0,-40.5l-15,15Z" style="fill:#ef4444;"/><path d="M162.75,92.352l0,-39.852c0,-28.976 -23.524,-52.5 -52.5,-52.5c-0,0 -74.25,0 -74.25,0c-12.418,0 -22.5,10.082 -22.5,22.5l0,131.25c0,12.418 10.082,22.5 22.5,22.5l42.852,0l83.898,-83.898Zm-64.5,-77.352l0,27c0,12.418 10.082,22.5 22.5,22.5l27,-0l0,21.639l-75.111,75.111l-36.639,0c-4.139,0 -7.5,-3.361 -7.5,-7.5l0,-131.25c0,-4.139 3.361,-7.5 7.5,-7.5l62.25,0Zm15,0.119c18.307,1.452 32.929,16.074 34.381,34.381l-26.881,0c-4.139,0 -7.5,-3.361 -7.5,-7.5l0,-26.881Z" style="fill:#ef4444;"/><circle cx="64.875" cy="68.25" r="19.125" style="fill:#ef4444;"/><path d="M48.75,108l33,33l-33,-0l0,-33Z" style="fill:#ef4444;"/><rect x="98.25" y="88.5" width="32.25" height="32.25" style="fill:#ef4444;"/></svg>