<?xml version="1.0" encoding="UTF-8" standalone="no"?>
<!DOCTYPE svg PUBLIC "-//W3C//DTD SVG 1.1//EN" "http://www.w3.org/Graphics/SVG/1.1/DTD/svg11.dtd">
<svg width="100%" height="100%" viewBox="0 0 583 110" version="1.1" xmlns="http://www.w3.org/2000/svg" xmlns:xlink="http://www.w3.org/1999/xlink" xml:space="preserve" xmlns:serif="http://www.serif.com/" style="fill-rule:evenodd;clip-rule:evenodd;stroke-linejoin:round;stroke-miterlimit:2;">
    <g transform="matrix(0.750266,0,0,0.750266,-165.501,-212.623)">
        <rect x="220.589" y="285.096" width="23.781" height="118.904" style="fill:rgb(14,165,233);fill-rule:nonzero;"/>
    </g>
    <g transform="matrix(0.750266,0,0,0.750266,-165.501,-212.623)">
        <path d="M354.781,285.096L354.781,367.989L298.726,285.096L271.548,285.096L271.548,404L295.329,404L295.329,321.107L351.384,404L378.562,404L378.562,285.096L354.781,285.096Z" style="fill:rgb(14,165,233);fill-rule:nonzero;"/>
    </g>
    <g transform="matrix(0.574616,0,0,0.574616,-260.425,-255.429)">
        <path d="M861.748,635.479L821.17,594.864C810.776,584.461 804.543,567.864 813.75,552.917C818.699,544.883 821.383,535.104 821.383,524.364C821.383,495.31 801.644,473.353 771.481,473.353C741.318,473.353 721.579,495.31 721.579,524.364C721.579,549.402 736.238,569.17 759.595,574.156C770.629,576.511 778.84,577.073 785,580.864C795.014,587.027 804.355,597.509 804.355,597.509C804.355,597.509 802.101,598.665 800.901,599.164C792,602.864 781.915,604.207 771.481,604.207C726.014,604.207 690.528,570.718 690.528,524.364C690.528,478.01 726.014,444.521 771.481,444.521C816.947,444.521 852.433,478.01 852.433,524.364C852.433,539.328 848.735,552.952 842.197,564.539C839.591,569.168 840.392,574.968 844.155,578.718C856.439,591 881.265,615.74 881.265,615.74L861.748,635.479Z" style="fill:rgb(14,165,233);fill-rule:nonzero;"/>
    </g>
    <g transform="matrix(0.750266,0,0,0.750266,-165.501,-212.623)">
        <path d="M571.356,353.041L571.356,285.096L548.425,285.096L548.425,356.438C548.425,388.203 570.677,405.699 601.082,405.699C631.488,405.699 653.74,388.203 653.74,356.438L653.74,285.096L630.808,285.096L630.808,353.041C630.808,371.556 619.258,382.767 601.082,382.767C582.907,382.767 571.356,371.556 571.356,353.041Z" style="fill:rgb(14,165,233);fill-rule:nonzero;"/>
    </g>
    <g transform="matrix(0.750266,0,0,0.750266,-165.501,-212.623)">
        <path d="M769.247,404L769.247,381.918L703,381.918L703,354.23L760.753,354.23L760.753,332.148L703,332.148L703,307.178L769.247,307.178L769.247,285.096L679.219,285.096L679.219,404L769.247,404Z" style="fill:rgb(14,165,233);fill-rule:nonzero;"/>
    </g>
    <g transform="matrix(0.750266,0,0,0.750266,-165.501,-212.623)">
        <path d="M791.329,319.238C791.329,340.471 810.353,347.266 830.737,353.041C849.932,358.477 854.858,360.685 854.858,369.348C854.858,377.841 849.082,383.107 833.285,383.107C819.186,383.107 806.107,375.123 799.652,367.649L784.534,384.805C791.668,394.488 813.241,405.699 835.153,405.699C860.463,405.699 878.808,392.11 878.808,368.499C878.808,346.077 864.03,338.603 841.438,332.658C821.904,327.562 815.959,325.693 815.959,318.219C815.959,310.405 823.093,305.989 834.644,305.989C847.893,305.989 855.877,310.405 861.312,316.011L875.921,298.345C867.088,289.512 854.858,283.397 834.644,283.397C814.43,283.397 791.329,296.137 791.329,319.238Z" style="fill:rgb(14,165,233);fill-rule:nonzero;"/>
    </g>
    <g transform="matrix(0.750266,0,0,0.750266,-165.501,-212.623)">
        <path d="M956.096,307.178L996.863,307.178L996.863,285.096L891.548,285.096L891.548,307.178L932.315,307.178L932.315,404L956.096,404L956.096,307.178Z" style="fill:rgb(14,165,233);fill-rule:nonzero;"/>
    </g>
</svg>
